<svg aria-hidden="true" style="position:absolute;width:0;height:0;overflow:hidden" xmlns="http://www.w3.org/2000/svg">
    <defs>
        <symbol id="icon-home" viewBox="0 0 32 32">
            <path
                d="M3.556 0A3.556 3.556 0 0 0 0 3.556v24.889a3.556 3.556 0 0 0 3.556 3.556h24.889a3.556 3.556 0 0 0 3.556-3.556V3.556A3.556 3.556 0 0 0 28.445 0H3.556zm10.311 17.988v6.901H8.534v-9.202h-3.2L16.001 5.333l10.667 10.354h-3.2v9.202h-5.333v-6.901h-4.267z" />
        </symbol>
        <symbol id="icon-statistic" viewBox="0 0 32 32">
            <path
                d="M3.556 0h24.889a3.556 3.556 0 0 1 3.556 3.556v24.889a3.556 3.556 0 0 1-3.556 3.556H3.556A3.556 3.556 0 0 1 0 28.445V3.556A3.556 3.556 0 0 1 3.556 0zm22.625 13.63c1.244 0 2.263-1.067 2.263-2.372 0-1.303-1.019-2.37-2.263-2.37s-2.263 1.067-2.263 2.37c0 .213.023.416.08.604l-4.016 4.22a1.874 1.874 0 0 0-.56-.084h-.028.001c-.206 0-.409.023-.59.084L15.92 13.06c.051-.176.08-.378.08-.587v-.032.002c0-1.303-1.019-2.37-2.263-2.37s-2.261 1.067-2.261 2.37c0 .213.021.427.078.617l-5.159 5.392a1.806 1.806 0 0 0-.549-.084h-.028.001c-1.244 0-2.263 1.067-2.263 2.372 0 1.303 1.019 2.37 2.263 2.37s2.261-1.067 2.261-2.37a2.08 2.08 0 0 0-.078-.604l5.147-5.404c.181.059.386.082.588.082.204 0 .409-.023.588-.082l2.885 3.022c-.051.176-.08.378-.08.587v.03-.002c0 1.305 1.019 2.372 2.263 2.372s2.263-1.067 2.263-2.372c0-.213-.023-.427-.08-.615l4.028-4.208c.18.059.373.084.576.084z" />
        </symbol>
        <symbol id="icon-wallet" viewBox="0 0 32 32">
            <path
                d="M5.053 0A5.053 5.053 0 0 0 0 5.053v21.895a5.053 5.053 0 0 0 5.053 5.053h21.895a5.053 5.053 0 0 0 5.053-5.053V5.053A5.053 5.053 0 0 0 26.948 0H5.053zm8.212 13.136c0 .995.765 1.635 3.144 2.253s4.925 1.635 4.925 4.61c0 2.148-1.624 3.332-3.667 3.72v2.253h-3.143v-2.274c-2.012-.43-3.73-1.718-3.856-4.013h2.305c.115 1.236.964 2.2 3.123 2.2 2.316 0 2.829-1.153 2.829-1.876 0-.974-.524-1.896-3.143-2.525-2.923-.702-4.925-1.907-4.925-4.327 0-2.022 1.635-3.342 3.667-3.783V7.111h3.143v2.295c2.19.534 3.29 2.19 3.363 3.992h-2.316c-.063-1.31-.754-2.2-2.619-2.2-1.771 0-2.829.796-2.829 1.938z" />
        </symbol>
        <symbol id="icon-exit" viewBox="0 0 32 32">
            <path
                d="M20.051 23.237h2.499v4.997a3.752 3.752 0 0 1-3.748 3.748H3.748A3.752 3.752 0 0 1 0 28.234V3.748A3.752 3.752 0 0 1 3.748 0h15.054a3.752 3.752 0 0 1 3.748 3.748v4.997h-2.499V3.748a1.25 1.25 0 0 0-1.249-1.249H3.748a1.25 1.25 0 0 0-1.249 1.249v24.486a1.25 1.25 0 0 0 1.249 1.249h15.054a1.25 1.25 0 0 0 1.249-1.249v-4.997zm6.06-13.135-1.767 1.767 2.873 2.874H11.056v2.499h16.161l-2.873 2.873 1.767 1.767L32 15.993l-5.889-5.89z" />
        </symbol>
    </defs>
</svg>